<svg width="81" height="82" viewBox="0 0 81 82" fill="none" xmlns="http://www.w3.org/2000/svg">
<path d="M40.4999 8.80762C22.7422 8.80762 8.30762 23.2422 8.30762 40.9999C8.30762 58.7576 22.7422 73.1922 40.4999 73.1922C58.2576 73.1922 72.6922 58.7576 72.6922 40.9999C72.6922 23.2422 58.2576 8.80762 40.4999 8.80762ZM30.1153 55.5384C27.8307 55.5384 25.9615 53.6692 25.9615 51.3845C25.9615 49.0999 27.8307 47.2307 30.1153 47.2307C32.3999 47.2307 34.2692 49.0999 34.2692 51.3845C34.2692 53.6692 32.3999 55.5384 30.1153 55.5384ZM30.1153 34.7692C27.8307 34.7692 25.9615 32.8999 25.9615 30.6153C25.9615 28.3307 27.8307 26.4615 30.1153 26.4615C32.3999 26.4615 34.2692 28.3307 34.2692 30.6153C34.2692 32.8999 32.3999 34.7692 30.1153 34.7692ZM50.8845 55.5384C48.5999 55.5384 46.7307 53.6692 46.7307 51.3845C46.7307 49.0999 48.5999 47.2307 50.8845 47.2307C53.1692 47.2307 55.0384 49.0999 55.0384 51.3845C55.0384 53.6692 53.1692 55.5384 50.8845 55.5384ZM50.8845 34.7692C48.5999 34.7692 46.7307 32.8999 46.7307 30.6153C46.7307 28.3307 48.5999 26.4615 50.8845 26.4615C53.1692 26.4615 55.0384 28.3307 55.0384 30.6153C55.0384 32.8999 53.1692 34.7692 50.8845 34.7692Z" fill="#171A1F"/>
</svg>
