<svg width="83" height="83" viewBox="0 0 83 83" fill="none" xmlns="http://www.w3.org/2000/svg">
<path d="M41.5003 67.0382C43.7836 67.0367 45.9912 66.219 47.7246 64.7327C49.458 63.2464 50.6029 61.1893 50.9527 58.9329C48.0977 58.6807 44.9575 58.5254 41.5003 58.5254C38.043 58.5254 34.9028 58.6807 32.0479 58.9329C32.3977 61.1893 33.5426 63.2464 35.2759 64.7327C37.0093 66.219 39.2169 67.0367 41.5003 67.0382Z" fill="#171A1F"/>
<path d="M63.846 48.2754L63.846 31.9233C63.846 25.9967 61.4917 20.3129 57.301 16.1222C53.1103 11.9315 47.4264 9.57715 41.4999 9.57715C35.5733 9.57715 29.8895 11.9315 25.6988 16.1222C21.508 20.3129 19.1537 25.9967 19.1537 31.9233L19.1537 48.2754C11.8114 51.8954 8.5127 58.6419 8.5127 63.8464C8.5127 69.8415 25.2851 73.4233 41.4999 73.4233C57.7147 73.4233 74.4871 69.8415 74.4871 63.8464C74.4871 58.6419 71.1883 51.8954 63.846 48.2754ZM41.4999 71.2951C22.6653 71.2951 10.6409 66.8833 10.6409 63.8464C10.6409 60.8094 22.6653 56.3977 41.4999 56.3977C60.3345 56.3977 72.3588 60.8094 72.3588 63.8464C72.3588 66.8833 60.3345 71.2951 41.4999 71.2951Z" fill="#171A1F"/>
</svg>
