<svg width="89" height="90" viewBox="0 0 89 90" fill="none" xmlns="http://www.w3.org/2000/svg">
<path d="M78.731 43.8592L74.6393 43.8592C76.4409 40.4988 77.4656 36.777 77.6379 32.9681C77.6509 28.0092 75.6966 23.2475 72.2035 19.7277C68.7104 16.2079 63.9638 14.2172 59.0049 14.1925C56.2108 14.1832 53.4516 14.8124 50.9378 16.0321C48.4239 17.2518 46.2221 19.0298 44.5002 21.2303C42.7784 19.0298 40.5765 17.2518 38.0627 16.0321C35.5489 14.8124 32.7896 14.1832 29.9955 14.1925C25.0366 14.2172 20.2901 16.2079 16.797 19.7277C13.3039 23.2475 11.3495 28.0092 11.3625 32.9681C11.5329 36.7769 12.5565 40.4988 14.3577 43.8592H10.2694C9.96682 43.8592 9.6766 43.9794 9.46262 44.1933C9.24863 44.4073 9.12842 44.6976 9.12842 45.0002C9.12842 45.3028 9.24863 45.593 9.46262 45.807C9.6766 46.021 9.96682 46.1412 10.2694 46.1412L30.8079 46.1412C31.0048 46.1412 31.1983 46.0902 31.3697 45.9932C31.541 45.8962 31.6844 45.7566 31.7858 45.5878L37.7043 35.7225L50.397 54.7617C50.4978 54.9128 50.6332 55.0378 50.7919 55.1261C50.9507 55.2144 51.1283 55.2636 51.3099 55.2694H51.3464C51.5235 55.2694 51.6982 55.2282 51.8566 55.1489C52.0151 55.0697 52.1529 54.9547 52.2592 54.813L58.763 46.1412L78.731 46.1412C79.0336 46.1412 79.3238 46.021 79.5378 45.807C79.7518 45.593 79.872 45.3028 79.872 45.0002C79.872 44.6976 79.7518 44.4073 79.5378 44.1933C79.3238 43.9794 79.0336 43.8592 78.731 43.8592Z" fill="#171A1F"/>
<path d="M54.0846 56.1817C53.765 56.6061 53.3514 56.9506 52.8763 57.1881C52.4011 57.4257 51.8774 57.5499 51.3462 57.5509H51.3142C50.7558 57.5433 50.2076 57.4005 49.7164 57.1348C49.2252 56.8692 48.8057 56.4885 48.4936 56.0254L37.8022 39.9883L33.739 46.7614C33.4338 47.2664 33.0039 47.6844 32.4906 47.9754C31.9773 48.2663 31.3977 48.4204 30.8077 48.4227L16.8975 48.4227C25.8944 62.9275 42.8044 77.026 43.7732 77.8281C43.9777 77.9971 44.2347 78.0896 44.5 78.0896C44.7653 78.0896 45.0223 77.9971 45.2268 77.8281C46.1956 77.0294 63.1056 62.9275 72.1026 48.4227L59.9039 48.4227L54.0846 56.1817Z" fill="#171A1F"/>
</svg>
