<svg width="75" height="75" viewBox="0 0 75 75" fill="none" xmlns="http://www.w3.org/2000/svg">
<path d="M8.65392 39.4232H13.4616C13.7166 39.4232 13.9612 39.3219 14.1415 39.1416C14.3218 38.9612 14.4232 38.7167 14.4232 38.4616C14.4263 36.0807 15.3114 33.7853 16.9076 32.0186C18.5039 30.2519 20.698 29.1392 23.0664 28.8953C22.3076 29.7565 21.728 30.7604 21.3616 31.8482L15.6587 48.7501C17.4893 50.0696 19.4361 51.2199 21.4751 52.1866C22.7588 48.9866 24.9711 46.2442 27.8272 44.3127C30.6832 42.3811 34.0522 41.3488 37.5001 41.3488C40.948 41.3488 44.3169 42.3811 47.173 44.3127C50.029 46.2442 52.2414 48.9866 53.5251 52.1866C55.5254 51.2367 57.4371 50.1105 59.2376 48.8213L53.8905 34.5616L56.3568 24.7866L60.4808 28.1732C60.7984 28.4372 61.193 28.5911 61.6054 28.6119C62.0178 28.6327 62.4258 28.5193 62.7683 28.2886L64.3482 27.2309C64.7399 26.9699 65.0223 26.5743 65.142 26.1191C65.2616 25.6638 65.2101 25.1805 64.9972 24.7607L60.6087 16.1068V13.4616C60.6087 13.2066 60.5074 12.9621 60.3271 12.7817C60.1468 12.6014 59.9022 12.5001 59.6472 12.5001C56.749 12.4887 53.9152 13.3554 51.5192 14.986C49.1231 16.6165 47.2771 18.9345 46.2241 21.6347C45.7377 22.9069 44.8767 24.0016 43.7549 24.7742C42.6332 25.5468 41.3035 25.9608 39.9414 25.9616L29.5568 25.9616C28.0541 25.9625 26.5777 26.3553 25.2732 27.1011C23.6814 26.3598 21.9483 25.9712 20.1924 25.9616C16.8783 25.9655 13.7011 27.2837 11.3578 29.627C9.01439 31.9704 7.6962 35.1476 7.69238 38.4616C7.69238 38.7167 7.79369 38.9612 7.97401 39.1416C8.15433 39.3219 8.39891 39.4232 8.65392 39.4232Z" fill="#171A1F"/>
<path d="M37.4997 60.5773C26.389 60.6135 15.718 56.2392 7.82956 48.4148C7.73888 48.3239 7.66719 48.2159 7.61867 48.097C7.57014 47.9781 7.54575 47.8507 7.54691 47.7223C7.54808 47.5939 7.57477 47.467 7.62544 47.349C7.67611 47.231 7.74974 47.1243 7.84206 47.035L8.53052 46.3619C8.71201 46.1876 8.95465 46.0913 9.20634 46.0938C9.45803 46.0963 9.6987 46.1974 9.87667 46.3754C17.2448 53.6249 27.1671 57.6877 37.5036 57.6877C47.8401 57.6877 57.7624 53.6249 65.1305 46.3754C65.3085 46.1974 65.5492 46.0963 65.8008 46.0938C66.0525 46.0913 66.2952 46.1876 66.4767 46.3619L67.1651 47.035C67.2574 47.1243 67.3311 47.231 67.3817 47.349C67.4324 47.467 67.4591 47.5939 67.4603 47.7223C67.4614 47.8507 67.437 47.9781 67.3885 48.097C67.34 48.2159 67.2683 48.3239 67.1776 48.4148C59.2873 56.2411 48.6131 60.6155 37.4997 60.5773Z" fill="#171A1F"/>
</svg>
