<svg width="91" height="92" viewBox="0 0 91 92" fill="none" xmlns="http://www.w3.org/2000/svg">
<path d="M56 20.9166L35 12.5166L35 71.0833L56 79.4833L56 20.9166Z" fill="#171A1F"/>
<path d="M32.6668 12.5166L10.1502 19.1666C9.6835 19.3999 9.3335 19.8666 9.3335 20.3333L9.3335 76.3333C9.3335 76.6833 9.45016 77.0333 9.80016 77.2666C10.1502 77.4999 10.5002 77.4999 10.8502 77.4999L32.6668 70.8499L32.6668 12.5166Z" fill="#171A1F"/>
<path d="M81.2002 14.7333C80.8502 14.5 80.5002 14.5 80.1502 14.5L58.3335 21.15L58.3335 79.6L80.8502 72.8333C81.3168 72.7167 81.6668 72.25 81.6668 71.6667L81.6668 15.6667C81.6668 15.3167 81.5502 14.9667 81.2002 14.7333Z" fill="#171A1F"/>
</svg>
